<?xml version="1.0" standalone="no"?>
<!DOCTYPE svg PUBLIC "-//W3C//DTD SVG 1.1//EN" "http://www.w3.org/Graphics/SVG/1.1/DTD/svg11.dtd" >
<svg xmlns="http://www.w3.org/2000/svg">
<metadata>Generated by IcoMoon</metadata>
<defs>
<font id="icomoon" horiz-adv-x="1024">
<font-face units-per-em="1024" ascent="960" descent="-64" />
<missing-glyph horiz-adv-x="1024" />
<glyph unicode="&#x20;" horiz-adv-x="512" d="" />
<glyph unicode="&#xe900;" glyph-name="Abstract-Service-Graph_Hamburger-Menu" d="M972.8 678.4h-921.6c-30.72 0-51.2 20.48-51.2 51.2s20.48 51.2 51.2 51.2h921.6c30.72 0 51.2-20.48 51.2-51.2s-20.48-51.2-51.2-51.2zM742.4 396.8h-691.2c-30.72 0-51.2 20.48-51.2 51.2s20.48 51.2 51.2 51.2h691.2c30.72 0 51.2-20.48 51.2-51.2s-25.6-51.2-51.2-51.2zM972.8 115.2h-921.6c-30.72 0-51.2 20.48-51.2 51.2s20.48 51.2 51.2 51.2h921.6c30.72 0 51.2-20.48 51.2-51.2s-20.48-51.2-51.2-51.2zM1039.36 448c0-42.415-34.385-76.8-76.8-76.8s-76.8 34.385-76.8 76.8c0 42.415 34.385 76.8 76.8 76.8s76.8-34.385 76.8-76.8z" />
<glyph unicode="&#xe901;" glyph-name="Abstract-Service-Graph_Menu_Reverse-Icon" d="M61.44 542.208h880.64c16.384 0 28.672 8.192 36.864 24.576s4.096 32.768-4.096 45.056l-266.24 319.488c-16.384 16.384-40.96 20.48-57.344 4.096s-20.48-40.96-4.096-57.344l208.896-253.952h-794.624c-24.576 0-40.96-16.384-40.96-40.96s16.384-40.96 40.96-40.96zM942.080 357.888h-880.64c-16.384 0-28.672-8.192-36.864-24.576s-4.096-32.768 4.096-45.056l266.24-319.488c8.192-8.192 20.48-16.384 32.768-16.384 8.192 0 20.48 4.096 24.576 8.192 16.384 16.384 20.48 40.96 4.096 57.344l-208.896 253.952h794.624c24.576 0 40.96 16.384 40.96 40.96s-16.384 45.056-40.96 45.056z" />
<glyph unicode="&#xe902;" d="M753.363 176.941h-481.882c-150.588 0-271.059 120.471-271.059 271.059v0c0 150.588 120.471 271.059 271.059 271.059h481.882c150.588 0 271.059-120.471 271.059-271.059v0c0-150.588-120.471-271.059-271.059-271.059z" />
<glyph unicode="&#xe903;" d="M271.059 267.294c-99.388 0-180.706 81.318-180.706 180.706s81.318 180.706 180.706 180.706 180.706-81.318 180.706-180.706c0-99.388-81.318-180.706-180.706-180.706zM271.059 583.529c-75.294 0-135.529-60.235-135.529-135.529s60.235-135.529 135.529-135.529 135.529 60.235 135.529 135.529c0 75.294-60.235 135.529-135.529 135.529z" />
<glyph unicode="&#xe904;" d="M753.363 176.941h-481.882c-150.588 0-271.059 120.471-271.059 271.059v0c0 150.588 120.471 271.059 271.059 271.059h481.882c150.588 0 271.059-120.471 271.059-271.059v0c0-150.588-120.471-271.059-271.059-271.059z" />
<glyph unicode="&#xe905;" d="M752.941 267.294c-99.388 0-180.706 81.318-180.706 180.706s81.318 180.706 180.706 180.706 180.706-81.318 180.706-180.706c0-99.388-81.318-180.706-180.706-180.706zM752.941 583.529c-75.294 0-135.529-60.235-135.529-135.529s60.235-135.529 135.529-135.529 135.529 60.235 135.529 135.529c0 75.294-60.235 135.529-135.529 135.529z" />
<glyph unicode="&#xe906;" glyph-name="Abstract-Service-Graph_Narrow-Rectangle-Icon" d="M512 960c62.838 0 113.778-50.94 113.778-113.778v-796.444c0-62.838-50.94-113.778-113.778-113.778s-113.778 50.94-113.778 113.778v796.444c0 62.838 50.94 113.778 113.778 113.778z" />
<glyph unicode="&#xe907;" glyph-name="Abstract-Service-Graph_Plus-Icon-for-next-level" d="M921.6 550.4h-307.2v307.2c0 61.44-40.96 102.4-102.4 102.4s-102.4-40.96-102.4-102.4v-307.2h-307.2c-61.44 0-102.4-40.96-102.4-102.4s40.96-102.4 102.4-102.4h307.2v-307.2c0-61.44 40.96-102.4 102.4-102.4s102.4 40.96 102.4 102.4v307.2h307.2c61.44 0 102.4 40.96 102.4 102.4s-40.96 102.4-102.4 102.4z" />
<glyph unicode="&#xe908;" glyph-name="Abstract-Service-Graph_Trapezius-Icon" d="M312.889 931.556l426.667-130.844c28.444-11.378 45.511-34.133 45.511-62.578v-563.2c0-28.444-17.067-56.889-45.511-62.578l-426.667-130.844c-39.822-17.067-85.333 11.378-85.333 56.889v830.578c0 45.511 45.511 79.644 85.333 62.578z" />
<glyph unicode="&#xe909;" glyph-name="Abstract-Service-Graph_Triangle-Icon" d="M811.674 537.498c31.734-17.808 52.826-51.241 52.826-89.6s-21.092-71.792-52.311-89.334l-0.515-0.266-608.358-337.92c-14.328-8.103-31.464-12.878-49.715-12.878-56.554 0-102.4 45.846-102.4 102.4 0 0.064 0 0.127 0 0.191v-0.010 675.84c0.014 56.544 45.855 102.376 102.4 102.376 18.251 0 35.388-4.775 50.227-13.144l-0.512 0.266z" />
<glyph unicode="&#xe90a;" glyph-name="Abstract-Service-Graph_Wide-Rectangle-Icon" d="M341.333 960h341.333c62.838 0 113.778-50.94 113.778-113.778v-796.444c0-62.838-50.94-113.778-113.778-113.778h-341.333c-62.838 0-113.778 50.94-113.778 113.778v796.444c0 62.838 50.94 113.778 113.778 113.778z" />
<glyph unicode="&#xe90b;" glyph-name="Add-Box_Add-Icon" d="M984.178 487.822h-426.667v432.356c0 22.756-22.756 39.822-45.511 39.822s-39.822-17.067-39.822-39.822v-426.667h-426.667c-28.444-5.689-45.511-22.756-45.511-45.511s17.067-45.511 45.511-45.511h426.667v-426.667c0-22.756 17.067-39.822 39.822-39.822s45.511 17.067 45.511 45.511v420.978h426.667c22.756 0 39.822 22.756 39.822 45.511s-17.067 39.822-39.822 39.822z" />
<glyph unicode="&#xe90c;" glyph-name="Amount-Boxes_Decrease" d="M1042.618 755.2c0 0 0 0 0 0-27.927 27.927-74.473 27.927-102.4 0l-409.6-409.6-409.6 409.6c0 0 0 0 0 0-27.927 27.927-74.473 27.927-102.4 0 0 0 0 0 0 0-27.927-27.927-27.927-74.473 0-102.4l465.455-465.455c9.309-9.309 27.927-18.618 46.545-18.618s37.236 9.309 46.545 18.618l465.455 465.455c0 0 0 0 0 0 27.927 27.927 27.927 74.473 0 102.4z" />
<glyph unicode="&#xe90d;" glyph-name="Amount-Boxes_Increase" d="M1042.618 289.745l-465.455 465.455c-9.309 9.309-27.927 18.618-46.545 18.618s-37.236-9.309-46.545-18.618l-465.455-465.455c0 0 0 0 0 0-27.927-27.927-27.927-74.473 0-102.4 0 0 0 0 0 0 27.927-27.927 74.473-27.927 102.4 0l409.6 409.6 409.6-409.6c0 0 0 0 0 0 27.927-27.927 74.473-27.927 102.4 0 0 0 0 0 0 0 27.927 37.236 27.927 74.473 0 102.4z" />
<glyph unicode="&#xe90e;" glyph-name="BPM_Alert-Icon" d="M514.829 960c-282.873 0-514.829-231.956-514.829-514.829s231.956-514.829 514.829-514.829c282.873 0 514.829 231.956 514.829 514.829s-231.956 514.829-514.829 514.829zM514.829 49.149c-220.641 0-401.68 175.381-401.68 396.022s181.039 401.68 401.68 401.68c220.641 0 401.68-181.039 401.68-401.68s-181.039-396.022-401.68-396.022zM514.829 281.105c-33.945 0-56.575-28.287-56.575-56.575 0-33.945 28.287-56.575 56.575-56.575 0 0 0 0 0 0 33.945 0 56.575 28.287 56.575 56.575s-28.287 56.575-56.575 56.575zM514.829 326.365c33.945 0 56.575 22.63 56.575 56.575v316.818c0 33.945-22.63 56.575-56.575 56.575s-56.575-22.63-56.575-56.575v-316.818c0-28.287 22.63-56.575 56.575-56.575z" />
<glyph unicode="&#xe90f;" glyph-name="BPM_Blue-Link" d="M990.968 514.065h-66.065c-18.168 0-33.032-14.865-33.032-33.032v-16.516h-759.742v16.516c0 18.168-14.865 33.032-33.032 33.032h-66.065c-18.168 0-33.032-14.865-33.032-33.032v-66.065c0-18.168 14.865-33.032 33.032-33.032h66.065c18.168 0 33.032 14.865 33.032 33.032v16.516h759.742v-16.516c0-18.168 14.865-33.032 33.032-33.032h66.065c18.168 0 33.032 14.865 33.032 33.032v66.065c0 18.168-14.865 33.032-33.032 33.032z" />
<glyph unicode="&#xe910;" glyph-name="BPM_Export" d="M995.84 471.040c-15.36 0-25.6-10.24-25.6-25.6v-314.88c0-79.36-64-145.92-145.92-145.92h-627.2c-81.92 2.56-145.92 66.56-145.92 148.48v627.2c0 79.36 64 145.92 145.92 145.92h314.88c12.8 0 25.6 10.24 25.6 25.6s-10.24 25.6-25.6 25.6h-314.88c-110.080 0-197.12-89.6-197.12-197.12v-627.2c0-110.080 87.040-197.12 197.12-197.12h627.2c107.52 0 197.12 87.040 197.12 197.12v312.32c0 15.36-12.8 25.6-25.6 25.6zM724.48 960c-15.36 0-25.6-10.24-25.6-25.6s10.24-25.6 25.6-25.6h212.48l-445.44-445.44c-10.24-10.24-10.24-25.6 0-35.84s25.6-10.24 35.84 0l445.44 445.44v-212.48c0-15.36 10.24-25.6 25.6-25.6s25.6 10.24 25.6 25.6v299.52h-299.52zM376.32 312.32c-10.24 10.24-25.6 10.24-35.84 0l-71.68-71.68-71.68 71.68c-10.24 10.24-25.6 10.24-35.84 0s-10.24-25.6 0-35.84l71.68-71.68-71.68-71.68c-10.24-10.24-10.24-25.6 0-35.84 5.12-5.12 10.24-7.68 17.92-7.68s12.8 2.56 17.92 7.68l71.68 71.68 71.68-71.68c5.12-5.12 10.24-7.68 17.92-7.68s12.8 2.56 17.92 7.68c10.24 10.24 10.24 25.6 0 35.84l-71.68 71.68 71.68 71.68c10.24 10.24 10.24 25.6 0 35.84zM442.88 320c-15.36 0-25.6-10.24-25.6-25.6v-204.8h120.32c15.36 0 25.6 10.24 25.6 25.6s-10.24 25.6-25.6 25.6h-71.68v153.6c2.56 15.36-10.24 25.6-23.040 25.6zM691.2 143.36h-66.56c-15.36 0-25.6-10.24-25.6-25.6s10.24-25.6 25.6-25.6h66.56c38.4 0 69.12 30.72 69.12 69.12s-30.72 69.12-69.12 69.12h-25.6c-10.24 0-17.92 7.68-17.92 17.92v2.56c0 10.24 7.68 17.92 17.92 17.92h66.56c15.36 0 25.6 10.24 25.6 25.6s-10.24 25.6-25.6 25.6h-66.56c-38.4 0-69.12-30.72-69.12-69.12v-2.56c0-38.4 30.72-69.12 69.12-69.12h25.6c10.24 0 17.92-7.68 17.92-17.92s-7.68-17.92-17.92-17.92z" />
<glyph unicode="&#xe911;" glyph-name="BPM_Import" d="M995.84 471.040c-15.36 0-25.6-10.24-25.6-25.6v-314.88c0-79.36-64-145.92-145.92-145.92h-627.2c-81.92 2.56-145.92 66.56-145.92 148.48v627.2c0 79.36 64 145.92 145.92 145.92h314.88c12.8 0 25.6 10.24 25.6 25.6s-10.24 25.6-25.6 25.6h-314.88c-110.080 0-197.12-89.6-197.12-197.12v-627.2c0-110.080 87.040-197.12 197.12-197.12h627.2c107.52 0 197.12 87.040 197.12 197.12v312.32c0 15.36-12.8 25.6-25.6 25.6zM509.44 747.52c-15.36 0-25.6-10.24-25.6-25.6v-299.52h299.52c15.36 0 25.6 10.24 25.6 25.6s-10.24 25.6-25.6 25.6h-212.48l445.44 442.88c10.24 10.24 10.24 25.6 0 35.84s-25.6 10.24-35.84 0l-445.44-442.88v212.48c0 12.8-10.24 25.6-25.6 25.6zM376.32 312.32c-10.24 10.24-25.6 10.24-35.84 0l-71.68-71.68-71.68 71.68c-10.24 10.24-25.6 10.24-35.84 0s-10.24-25.6 0-35.84l71.68-71.68-71.68-71.68c-10.24-10.24-10.24-25.6 0-35.84 5.12-5.12 10.24-7.68 17.92-7.68s12.8 2.56 17.92 7.68l71.68 71.68 71.68-71.68c5.12-5.12 10.24-7.68 17.92-7.68s12.8 2.56 17.92 7.68c10.24 10.24 10.24 25.6 0 35.84l-71.68 71.68 71.68 71.68c10.24 10.24 10.24 25.6 0 35.84zM442.88 320c-15.36 0-25.6-10.24-25.6-25.6v-204.8h120.32c15.36 0 25.6 10.24 25.6 25.6s-10.24 25.6-25.6 25.6h-71.68v153.6c2.56 15.36-10.24 25.6-23.040 25.6zM691.2 143.36h-66.56c-15.36 0-25.6-10.24-25.6-25.6s10.24-25.6 25.6-25.6h66.56c38.4 0 69.12 30.72 69.12 69.12s-30.72 69.12-69.12 69.12h-25.6c-10.24 0-17.92 7.68-17.92 17.92v2.56c0 10.24 7.68 17.92 17.92 17.92h66.56c15.36 0 25.6 10.24 25.6 25.6s-10.24 25.6-25.6 25.6h-66.56c-38.4 0-69.12-30.72-69.12-69.12v-2.56c0-38.4 30.72-69.12 69.12-69.12h25.6c10.24 0 17.92-7.68 17.92-17.92s-7.68-17.92-17.92-17.92z" />
<glyph unicode="&#xe912;" glyph-name="BPM_Purple-Link" d="M33.032 489.29c-4.561 0-8.258-3.697-8.258-8.258v0-66.065c0-4.561 3.697-8.258 8.258-8.258v0h66.065c4.561 0 8.258 3.697 8.258 8.258v0 66.065c0 4.561-3.697 8.258-8.258 8.258v0h-66.065zM33.032 514.065h66.065c18.243 0 33.032-14.789 33.032-33.032v0-66.065c0-18.243-14.789-33.032-33.032-33.032v0h-66.065c-18.243 0-33.032 14.789-33.032 33.032v0 66.065c0 18.243 14.789 33.032 33.032 33.032v0zM924.903 489.29c-4.561 0-8.258-3.697-8.258-8.258v0-66.065c0-4.561 3.697-8.258 8.258-8.258v0h66.065c4.561 0 8.258 3.697 8.258 8.258v0 66.065c0 4.561-3.697 8.258-8.258 8.258v0h-66.065zM924.903 514.065h66.065c18.243 0 33.032-14.789 33.032-33.032v0-66.065c0-18.243-14.789-33.032-33.032-33.032v0h-66.065c-18.243 0-33.032 14.789-33.032 33.032v0 66.065c0 18.243 14.789 33.032 33.032 33.032v0zM905.266 435.613h-785.887v24.774h785.887z" />
<glyph unicode="&#xe913;" glyph-name="Create-Project_Alert-Icon" d="M518.024 960c-42.165 0-72.282-36.141-72.282-78.306v-614.4c0-42.165 36.141-78.306 78.306-78.306s78.306 36.141 78.306 78.306v614.4c-6.024 42.165-42.165 78.306-84.329 78.306zM596.329-9.788c0-43.247-35.059-78.306-78.306-78.306s-78.306 35.059-78.306 78.306c0 43.247 35.059 78.306 78.306 78.306s78.306-35.059 78.306-78.306z" />
<glyph unicode="&#xe914;" glyph-name="Create-Project_Checked-Icon" d="M333.824 45.909l-284.444 284.444c-28.444 28.444-28.444 73.956 0 102.4s73.956 28.444 102.4 0l182.044-182.044 546.133 546.133c28.444 28.444 73.956 28.444 102.4 0s28.444-73.956 0-102.4l-648.533-648.533z" />
<glyph unicode="&#xe915;" glyph-name="Create-Project_Download-Icon" d="M973.742 344.344c-25.129 0-50.258-18.847-50.258-50.258v-207.313c0-31.411-25.129-56.54-56.54-56.54h-716.172c-31.411 0-56.54 25.129-56.54 56.54v207.313c0 25.129-18.847 50.258-50.258 50.258s-43.975-25.129-43.975-50.258v-207.313c0-81.669 69.104-150.773 150.773-150.773h722.454c81.669 0 150.773 69.104 150.773 150.773v207.313c0 25.129-25.129 50.258-50.258 50.258zM477.448 262.675c6.282-6.282 18.847-12.564 31.411-12.564s25.129 6.282 31.411 12.564l263.853 257.571c12.564 18.847 12.564 50.258 0 62.822s-50.258 18.847-69.104 0l-175.902-175.902v502.577c0 31.411-25.129 50.258-50.258 50.258s-43.975-18.847-43.975-50.258v-502.577l-175.902 175.902c-18.847 18.847-50.258 18.847-69.104 0s-18.847-43.975 0-62.822l257.571-257.571z" />
<glyph unicode="&#xe916;" glyph-name="Delete-Icon" d="M870.4 590.222c-22.756 0-45.511-17.067-45.511-45.511v-432.356c0-45.511-34.133-79.644-79.644-79.644h-489.244c-45.511 0-79.644 34.133-79.644 79.644v432.356c0 22.756-17.067 45.511-45.511 45.511-22.756 0-45.511-17.067-45.511-45.511v-432.356c0-91.022 73.956-164.978 164.978-164.978h494.933c91.022 0 164.978 73.956 164.978 164.978v432.356c5.689 28.444-11.378 45.511-39.822 45.511zM932.978 772.267h-267.378v142.222c0 22.756-17.067 45.511-45.511 45.511h-238.933c-22.756 0-45.511-17.067-45.511-45.511v-142.222h-261.689c-28.444 0-45.511-17.067-45.511-39.822s17.067-45.511 45.511-45.511h864.711c22.756 0 45.511 17.067 45.511 45.511-5.689 22.756-28.444 39.822-51.2 39.822zM420.978 874.667h159.289v-102.4h-159.289v102.4zM546.133 203.378v307.2c0 22.756-17.067 45.511-45.511 45.511-22.756 0-45.511-17.067-45.511-45.511v-307.2c0-22.756 17.067-45.511 45.511-45.511s45.511 22.756 45.511 45.511zM728.178 203.378v307.2c0 22.756-17.067 45.511-45.511 45.511-22.756 0-45.511-17.067-45.511-45.511v-307.2c0-22.756 17.067-45.511 45.511-45.511s45.511 22.756 45.511 45.511zM358.4 203.378v307.2c0 22.756-17.067 45.511-45.511 45.511s-39.822-22.756-39.822-45.511v-307.2c0-22.756 17.067-45.511 45.511-45.511s39.822 22.756 39.822 45.511z" />
<glyph unicode="&#xe917;" glyph-name="Edit-Icon" d="M1006.742 747.146l-201.348 201.348c-5.753 5.753-17.258 11.506-28.764 11.506s-23.011-5.753-28.764-11.506l-667.326-667.326c-5.753-5.753-11.506-11.506-11.506-17.258l-69.034-270.382c0-5.753 0-11.506 0-23.011 5.753-23.011 28.764-34.517 51.775-28.764l264.629 69.034c0 0 0 0 0 0 5.753 0 11.506 5.753 17.258 11.506 0 0 0 0 0 0l673.079 661.573c0 0 0 0 0 0 17.258 17.258 17.258 46.022 0 63.281zM310.652 108.584l-138.067 138.067 471.73 471.73 138.067-138.067-471.73-471.73zM132.315 166.112l92.045-92.045-120.809-34.517 28.764 126.562zM845.663 643.596l-138.067 138.067 74.787 74.787 138.067-138.067-74.787-74.787z" />
<glyph unicode="&#xe918;" glyph-name="Every-Boxes_Cross-Icon" d="M593.623 448l393.275 393.275c22.261 22.261 22.261 59.362 0 81.623s-59.362 22.261-81.623 0l-393.275-393.275-393.275 393.275c-22.261 22.261-59.362 22.261-81.623 0s-22.261-59.362 0-81.623l393.275-393.275-393.275-393.275c-22.261-22.261-22.261-59.362 0-81.623s59.362-22.261 81.623 0l393.275 393.275 393.275-393.275c22.261-22.261 59.362-22.261 81.623 0s22.261 59.362 0 81.623l-393.275 393.275z" />
<glyph unicode="&#xe919;" glyph-name="Every-Boxes_Flesh-Icon-for-more-choices" d="M516.506 162.714c-0.036 0-0.078 0-0.12 0-21.147 0-40.292 8.57-54.153 22.426v0l-439.706 438.886c-13.908 13.9-22.512 33.107-22.512 54.323s8.603 40.423 22.511 54.323v0c13.9 13.908 33.107 22.512 54.323 22.512s40.423-8.603 54.323-22.511v0l385.331-384.717 385.331 384.819c13.9 13.908 33.107 22.512 54.323 22.512s40.423-8.603 54.323-22.511v0c13.908-13.9 22.512-33.107 22.512-54.323s-8.603-40.423-22.511-54.323l-439.706-438.989c-13.86-13.856-33.006-22.426-54.152-22.426-0.042 0-0.084 0-0.126 0h0.006z" />
<glyph unicode="&#xe91a;" d="M39.385 881.428h326.892v-208.738h-326.892v208.738z" />
<glyph unicode="&#xe91b;" d="M39.385 463.951h326.892v-189.046h-326.892v189.046z" />
<glyph unicode="&#xe91c;" d="M39.385 672.689h326.892v-208.738h-326.892v208.738z" />
<glyph unicode="&#xe91d;" d="M1012.185 463.951v-82.708c0-59.077-47.262-106.338-106.338-106.338h-204.8v189.046h311.138z" />
<glyph unicode="&#xe91e;" d="M366.277 463.951h326.892v-189.046h-326.892v189.046z" />
<glyph unicode="&#xe91f;" d="M1012.185 775.089v-102.4h-315.077v208.738h204.8c59.077 0 106.338-47.262 110.277-106.338z" />
<glyph unicode="&#xe920;" d="M366.277 881.428h326.892v-208.738h-326.892v208.738z" />
<glyph unicode="&#xe921;" d="M697.108 672.689h315.077v-208.738h-315.077v208.738z" />
<glyph unicode="&#xe922;" d="M366.277 672.689h326.892v-208.738h-326.892v208.738z" />
<glyph unicode="&#xe923;" d="M890.092 908.997h-827.077c-3.938 7.877-15.754 11.815-23.631 11.815s-19.692-3.938-23.631-11.815h-3.938v-3.938c-7.877-3.938-11.815-15.754-11.815-23.631v-878.277c0-23.631 15.754-39.385 39.385-39.385s39.385 15.754 39.385 39.385v244.185h811.323c82.708 0 149.662 66.954 149.662 145.723v370.215c0 82.708-66.954 145.723-149.662 145.723zM980.677 393.058c0-47.262-39.385-90.585-90.585-90.585h-811.323v547.446h811.323c47.262 0 90.585-39.385 90.585-90.585v-366.277z" />
<glyph unicode="&#xe924;" d="M39.385 881.428h326.892v-208.738h-326.892v208.738z" />
<glyph unicode="&#xe925;" d="M39.385 463.951h326.892v-189.046h-326.892v189.046z" />
<glyph unicode="&#xe926;" d="M39.385 672.689h326.892v-208.738h-326.892v208.738z" />
<glyph unicode="&#xe927;" d="M1012.185 463.951v-82.708c0-59.077-47.262-106.338-106.338-106.338h-204.8v189.046h311.138z" />
<glyph unicode="&#xe928;" d="M366.277 463.951h326.892v-189.046h-326.892v189.046z" />
<glyph unicode="&#xe929;" d="M1012.185 775.089v-102.4h-315.077v208.738h204.8c59.077 0 106.338-47.262 110.277-106.338z" />
<glyph unicode="&#xe92a;" d="M366.277 881.428h326.892v-208.738h-326.892v208.738z" />
<glyph unicode="&#xe92b;" d="M697.108 672.689h315.077v-208.738h-315.077v208.738z" />
<glyph unicode="&#xe92c;" d="M366.277 672.689h326.892v-208.738h-326.892v208.738z" />
<glyph unicode="&#xe92d;" d="M890.092 908.997h-827.077c-3.938 7.877-15.754 11.815-23.631 11.815s-19.692-3.938-23.631-11.815h-3.938v-3.938c-7.877-3.938-11.815-15.754-11.815-23.631v-878.277c0-23.631 15.754-39.385 39.385-39.385s39.385 15.754 39.385 39.385v244.185h811.323c82.708 0 149.662 66.954 149.662 145.723v370.215c0 82.708-66.954 145.723-149.662 145.723zM980.677 393.058c0-47.262-39.385-90.585-90.585-90.585h-811.323v547.446h811.323c47.262 0 90.585-39.385 90.585-90.585v-366.277z" />
<glyph unicode="&#xe92e;" d="M923.762 543.573c-0.007 229.981-186.445 416.414-416.427 416.414-229.986 0-416.427-186.441-416.427-416.427 0-171.38 103.528-318.58 251.457-382.472l2.7-1.038 126.748-212.764c7.577-11.852 20.668-19.596 35.567-19.596s27.99 7.744 35.466 19.428l0.101 0.169 126.748 212.764c150.58 64.951 254.066 212.126 254.066 383.471 0 0.018 0 0.036 0 0.054v-0.003z" />
<glyph unicode="&#xe92f;" d="M841.5 543.642c0-184.529-149.591-334.12-334.12-334.12s-334.12 149.591-334.12 334.12c0 184.529 149.591 334.12 334.12 334.12s334.12-149.591 334.12-334.12z" />
<glyph unicode="&#xe930;" d="M507.403 253.554c-160.199 0-290.065 129.867-290.065 290.065s129.867 290.065 290.065 290.065c160.199 0 290.065-129.867 290.065-290.065v0c-0.181-160.126-129.94-289.884-290.048-290.065h-0.017zM507.403 765.326c-122.446 0-221.707-99.262-221.707-221.707s99.262-221.707 221.707-221.707c122.446 0 221.707 99.262 221.707 221.707v0c-0.142 122.388-99.319 221.565-221.694 221.707h-0.014z" />
<glyph unicode="&#xe931;" d="M921.6 550.089c0 226.743-184.686 411.429-411.429 411.429-226.743-1.829-409.6-184.686-409.6-413.257 0-164.571 98.743-314.514 250.514-378.514l124.343-210.286c12.8-20.114 38.4-25.6 56.686-12.8 5.486 3.657 9.143 7.314 12.8 12.8l124.343 210.286c153.6 65.829 252.343 213.943 252.343 380.343z" />
<glyph unicode="&#xe932;" d="M853.943 546.432c0-188.85-153.093-341.943-341.943-341.943s-341.943 153.093-341.943 341.943c0 188.85 153.093 341.943 341.943 341.943s341.943-153.093 341.943-341.943z" />
<glyph unicode="&#xe933;" d="M510.336 423.040c-67.657 0-122.514 54.857-122.514 122.514s54.857 124.343 122.514 124.343 124.343-54.857 124.343-124.343c0-67.657-54.857-122.514-124.343-122.514zM510.336 640.64c-51.2 0-95.086-42.057-95.086-95.086s42.057-95.086 95.086-95.086 95.086 42.057 95.086 95.086v0c0 53.029-42.057 95.086-95.086 95.086z" />
<glyph unicode="&#xe934;" glyph-name="Menu-Icon-_-Create" d="M832.413 718.865c0-23.716-19.226-42.942-42.942-42.942s-42.942 19.226-42.942 42.942c0 23.716 19.226 42.942 42.942 42.942s42.942-19.226 42.942-42.942zM908.387 748.594c-13.213 0-26.426-9.91-26.426-26.426s9.91-26.426 26.426-26.426c39.639 0 75.974-33.032 75.974-75.974v-475.665c0-39.639-33.032-75.974-75.974-75.974h-782.865c-39.639 0-75.974 33.032-75.974 75.974v591.277c0 39.639 33.032 75.974 75.974 75.974h274.168l112.31-112.31h148.645c13.213 0 26.426 9.91 26.426 26.426s-13.213 23.123-26.426 23.123h-128.826l-112.31 112.31h-297.29c-66.065 0-122.219-56.155-122.219-125.523v-587.974c0-69.368 56.155-125.523 125.523-125.523h786.168c69.368 0 125.523 56.155 125.523 125.523v475.665c-3.303 69.368-59.458 125.523-128.826 125.523zM541.729 573.523c0 13.213-9.91 26.426-26.426 26.426s-26.426-9.91-26.426-26.426v-165.161h-165.161c-13.213 0-26.426-9.91-26.426-26.426s9.91-26.426 26.426-26.426h165.161v-165.161c0-13.213 9.91-26.426 26.426-26.426s26.426 9.91 26.426 26.426v165.161h165.161c13.213 0 26.426 9.91 26.426 26.426s-9.91 26.426-26.426 26.426h-165.161v165.161z" />
<glyph unicode="&#xe935;" glyph-name="Menu-Icon-_-Cross" d="M1024.035 916.801c0-23.858-19.341-43.199-43.199-43.199s-43.199 19.341-43.199 43.199c0 23.858 19.341 43.199 43.199 43.199s43.199-19.341 43.199-43.199z" />
<glyph unicode="&#xe936;" glyph-name="Menu-Icon-_-Export" d="M730.453 942.933h-580.267c-75.093 0-133.12-58.027-133.12-133.12v-235.52c0-13.653 10.24-27.307 27.307-27.307s23.893 13.653 23.893 27.307v235.52c0 44.373 37.547 81.92 81.92 81.92h559.787l249.173-249.173v-559.787c0-44.373-37.547-81.92-81.92-81.92h-727.040c-44.373 0-81.92 37.547-81.92 81.92v235.52c0 13.653-10.24 27.307-27.307 27.307s-27.307-10.24-27.307-27.307v-235.52c0-71.68 58.027-133.12 133.12-133.12h730.453c71.68 0 133.12 58.027 133.12 133.12v580.267l-279.893 279.893zM450.56 744.96c-10.24 10.24-27.307 10.24-37.547 0l-273.067-279.893c0 0 0 0 0 0l-17.067-17.067 290.133-296.96c3.413-6.827 10.24-6.827 17.067-6.827s13.653 3.413 17.067 6.827c10.24 10.24 10.24 27.307 0 37.547l-232.107 235.52h529.067c13.653 0 27.307 10.24 27.307 27.307s-10.24 27.307-27.307 27.307h-525.653l232.107 235.52c10.24 3.413 10.24 20.48 0 30.72zM88.747 444.587c0-24.507-19.867-44.373-44.373-44.373s-44.373 19.867-44.373 44.373c0 24.507 19.867 44.373 44.373 44.373s44.373-19.867 44.373-44.373z" />
<glyph unicode="&#xe937;" glyph-name="Menu-Icon-_-Import" d="M730.453 942.933h-580.267c-75.093 0-133.12-58.027-133.12-133.12v-235.52c0-13.653 10.24-27.307 27.307-27.307s23.893 13.653 23.893 27.307v235.52c0 44.373 37.547 81.92 81.92 81.92h559.787l249.173-249.173v-559.787c0-44.373-37.547-81.92-81.92-81.92h-727.040c-44.373 0-81.92 37.547-81.92 81.92v235.52c0 13.653-10.24 27.307-27.307 27.307s-27.307-10.24-27.307-27.307v-235.52c0-71.68 58.027-133.12 133.12-133.12h730.453c71.68 0 133.12 58.027 133.12 133.12v580.267l-279.893 279.893zM133.12 444.587c0-13.653 10.24-27.307 27.307-27.307h529.067l-232.107-235.52c-10.24-10.24-10.24-27.307 0-37.547 3.413-3.413 10.24-6.827 17.067-6.827s13.653 3.413 17.067 6.827l273.067 279.893c0 0 0 0 0 0l17.067 17.067-290.133 296.96c-10.24 10.24-27.307 10.24-37.547 0s-10.24-27.307 0-37.547l232.107-235.52h-525.653c-17.067 6.827-27.307-3.413-27.307-20.48zM88.747 444.587c0-24.507-19.867-44.373-44.373-44.373s-44.373 19.867-44.373 44.373c0 24.507 19.867 44.373 44.373 44.373s44.373-19.867 44.373-44.373z" />
<glyph unicode="&#xe938;" glyph-name="Menu-Icon-_-Load" d="M1013.029 352.914c-14.629 0-29.257-10.971-29.257-29.257v-219.429c0-43.886-36.571-84.114-84.114-84.114h-760.686c-43.886 0-84.114 36.571-84.114 84.114v219.429c0 14.629-10.971 29.257-29.257 29.257s-25.6-14.629-25.6-29.257v-219.429c0-76.8 62.171-138.971 138.971-138.971h764.343c76.8 0 138.971 62.171 138.971 138.971v219.429c-3.657 14.629-14.629 29.257-29.257 29.257zM237.714 590.629l252.343 248.686v-471.771c0-14.629 10.971-29.257 29.257-29.257s29.257 10.971 29.257 29.257v471.771l252.343-248.686c3.657-3.657 10.971-7.314 18.286-7.314s14.629 3.657 18.286 7.314c10.971 10.971 10.971 29.257 0 40.229l-299.886 292.571c0 0 0 0 0 0l-18.286 18.286-318.171-310.857c-10.971-10.971-10.971-29.257 0-40.229s25.6-10.971 36.571 0zM566.857 228.571c0-26.257-21.286-47.543-47.543-47.543s-47.543 21.286-47.543 47.543c0 26.257 21.286 47.543 47.543 47.543s47.543-21.286 47.543-47.543z" />
<glyph unicode="&#xe939;" glyph-name="Menu-Icon-_-Save" d="M717.856 682.007c0-25.265-20.481-45.746-45.746-45.746s-45.746 20.481-45.746 45.746c0 25.265 20.481 45.746 45.746 45.746s45.746-20.481 45.746-45.746zM735.45 960h-468.014c0 0 0 0 0 0s0 0 0 0h-130.199c-77.416 0-137.237-59.821-137.237-137.237v-753.045c0-73.897 59.821-137.237 137.237-137.237h753.045c73.897 0 137.237 59.821 137.237 137.237v598.213l-292.069 292.069zM292.069 66.199v228.729c0 42.227 35.189 80.935 80.935 80.935h327.258c42.227 0 80.935-35.189 80.935-80.935v-228.729c0-42.227-35.189-80.935-80.935-80.935h-327.258c-45.746 3.519-80.935 38.708-80.935 80.935zM971.216 69.718c0-45.746-38.708-84.454-84.454-84.454h-87.973c17.595 21.113 28.151 49.265 28.151 80.935v228.729c0 73.897-59.821 133.718-133.718 133.718h-327.258c-73.897 0-133.718-59.821-133.718-133.718v-228.729c0-28.151 10.557-56.302 28.151-80.935h-123.162c-45.746 0-84.454 38.708-84.454 84.454v753.045c0 21.113 7.038 42.227 24.632 59.821 14.076 14.076 35.189 24.632 59.821 24.632h105.567v-249.842h295.588c14.076 0 28.151 10.557 28.151 28.151s-10.557 28.151-28.151 28.151h-246.323v193.54h422.268l256.88-256.88v-580.619z" />
<glyph unicode="&#xe93a;" d="M224.647 664.623c73.747 50.139 211.987-24.576 308.745-166.893q8.378-12.325 15.974-24.762c-13.388 26.637-26.733 49.032-41.452 70.408l1.293-1.986c-96.815 142.317-234.999 217.032-308.745 166.893-69.502-47.253-56.953-188.509 25.693-323.733-60.211 120.832-63.544 237.847-1.508 280.073z" />
<glyph unicode="&#xe93b;" d="M251.178 309.965h-121.539c-71.563 0.085-129.554 58.075-129.638 129.63v306.296h82.758v-306.195c0.032-25.889 21.010-46.867 46.896-46.899h135.339z" />
<glyph unicode="&#xe93c;" d="M509.3 310.058h-121.539c-71.571 0.074-129.572 58.069-129.657 129.63v93.788h82.758v-93.78c0.032-25.889 21.010-46.867 46.896-46.899h135.339z" />
<glyph unicode="&#xe93d;" d="M464.356 230.204h-0.13z" />
<glyph unicode="&#xe93e;" d="M1014.281 310.058h-368.64c-71.571 0.074-129.572 58.069-129.657 129.63v93.788h82.758v-93.78c0.032-25.889 21.010-46.867 46.896-46.899h382.514z" />
<glyph unicode="&#xe93f;" d="M558.006 246.793c-73.747-50.139-211.987 24.576-308.745 166.893-56.785 83.521-86.668 171.753-86.761 240.547-22.547-71.55 5.939-187.206 79.22-295.005 96.815-142.317 234.98-217.032 308.745-166.893 30.478 20.722 45.168 59.578 45.093 107.985-6.319-22.154-19.59-40.606-37.261-53.328l-0.291-0.2z" />
<glyph unicode="&#xe940;" d="M258.96 691.693c0-29.932-24.265-54.198-54.198-54.198s-54.198 24.265-54.198 54.198c0 29.932 24.265 54.198 54.198 54.198s54.198-24.265 54.198-54.198z" />
<glyph unicode="&#xe941;" d="M562.027 207.937c0-29.943-24.273-54.216-54.216-54.216s-54.216 24.273-54.216 54.216c0 29.943 24.273 54.216 54.216 54.216s54.216-24.273 54.216-54.216z" />
<glyph unicode="&#xe942;" d="M482.695 207.937c0-29.943-24.273-54.216-54.216-54.216s-54.216 24.273-54.216 54.216c0 29.943 24.273 54.216 54.216 54.216s54.216-24.273 54.216-54.216z" />
<glyph unicode="&#xe943;" glyph-name="Search-Box_Search-Icon" d="M642.385 960c-209.888 0-381.615-171.727-381.615-381.615 0-89.043 31.801-171.727 82.683-235.329l-324.373-324.373c0 0 0 0 0 0-19.081-19.081-19.081-50.882 0-69.963 6.36-6.36 19.081-12.72 31.801-12.72s25.441 6.36 31.801 12.72l324.373 324.373c0 0 0 0 0 0 63.602-50.882 146.286-82.683 235.329-82.683 209.888 0 381.615 171.727 381.615 381.615s-171.727 387.975-381.615 387.975zM642.385 292.174c-159.006 0-286.211 127.205-286.211 286.211s127.205 286.211 286.211 286.211c159.006 0 286.211-127.205 286.211-286.211s-127.205-286.211-286.211-286.211z" />
<glyph unicode="&#xe944;" glyph-name="Table_Cross-Icon-for-erasing-all-of-filters" d="M612.486 443.215l392.374 392.374c9.57 9.57 19.14 28.71 19.14 47.85s-9.57 38.28-19.14 47.85c-28.71 28.71-76.561 28.71-105.271 0l-382.804-382.804-392.374 392.374c-28.71 28.71-76.561 28.71-105.271 0s-28.71-76.561 0-105.271l392.374-392.374-392.374-382.804c-28.71-28.71-28.71-76.561 0-105.271s76.561-28.71 105.271 0l392.374 392.374 392.374-392.374c9.57-9.57 28.71-19.14 47.85-19.14s38.28 9.57 47.85 19.14c28.71 28.71 28.71 76.561 0 105.271l-392.374 382.804z" />
<glyph unicode="&#xe945;" glyph-name="Table_Cross-Icon-for-erasing-each-filters" d="M610.642 452.697l394.569 394.569c0 0 0 0 0 0 28.183 18.789 28.183 65.761 0 93.945 0 0 0 0 0 0-28.183 28.183-75.156 28.183-103.339 0l-394.569-394.569-385.174 394.569c-28.183 28.183-75.156 28.183-103.339 0s-28.183-75.156 0-103.339l394.569-394.569-394.569-385.174c0 0 0 0 0 0-28.183-28.183-28.183-75.156 0-103.339 9.394-9.394 28.183-18.789 46.972-18.789s37.578 9.394 46.972 18.789l394.569 394.569 394.569-394.569c9.394-9.394 28.183-18.789 46.972-18.789s37.578 9.394 46.972 18.789c28.183 28.183 28.183 75.156 0 103.339l-385.174 394.569z" />
<glyph unicode="&#xe946;" glyph-name="Table_Flesh-Icon-for-combo-boxes" d="M516.506 162.714c-0.036 0-0.078 0-0.12 0-21.147 0-40.292 8.57-54.153 22.426v0l-439.706 438.886c-13.908 13.9-22.512 33.107-22.512 54.323s8.603 40.423 22.511 54.323v0c13.9 13.908 33.107 22.512 54.323 22.512s40.423-8.603 54.323-22.511v0l385.331-384.717 385.331 384.819c13.9 13.908 33.107 22.512 54.323 22.512s40.423-8.603 54.323-22.511v0c13.908-13.9 22.512-33.107 22.512-54.323s-8.603-40.423-22.511-54.323l-439.706-438.989c-13.86-13.856-33.006-22.426-54.152-22.426-0.042 0-0.084 0-0.126 0h0.006z" />
<glyph unicode="&#xe947;" glyph-name="Table_Search-Icon" d="M649.366 960c-131.122 0-243.512-62.439-312.195-162.341-6.244-12.488-6.244-18.732-12.488-24.976-12.488-24.976-24.976-49.951-31.22-74.927-12.488-37.463-18.732-74.927-18.732-112.39s6.244-74.927 18.732-112.39c6.244-24.976 18.732-49.951 31.22-74.927 6.244-6.244 12.488-18.732 12.488-24.976 6.244-6.244 12.488-12.488 12.488-18.732l-318.439-318.439c-18.732-18.732-18.732-49.951 0-68.683 6.244-12.488 18.732-12.488 31.22-12.488s24.976 6.244 31.22 12.488l318.439 318.439c62.439-49.951 143.61-81.171 231.024-81.171 206.049 0 374.634 168.585 374.634 374.634s-162.341 380.878-368.39 380.878zM649.366 304.39c-156.098 0-280.976 124.878-280.976 280.976s124.878 280.976 280.976 280.976c156.098 0 280.976-124.878 280.976-280.976s-124.878-280.976-280.976-280.976z" />
<glyph unicode="&#xe948;" glyph-name="Table_Separate-Line" d="M504.123 960c-19.692 0-31.508-11.815-31.508-31.508v-957.046c0-15.754 11.815-31.508 31.508-31.508s31.508 11.815 31.508 31.508v957.046c-3.938 19.692-15.754 31.508-31.508 31.508z" />
<glyph unicode="&#xe949;" glyph-name="Table_Sort-Icon_A-to-Z" d="M750.933 218.819c0 0 0 0 0 0-14.629 14.629-39.010 14.629-53.638 0l-146.286-146.286v848.457c0 24.381-14.629 39.010-39.010 39.010-19.505 0-34.133-14.629-34.133-39.010v-853.333l-146.286 146.286c0 0 0 0 0 0-14.629 14.629-39.010 14.629-53.638 0 0 0 0 0 0 0-14.629-14.629-14.629-39.010 0-53.638l209.676-209.676c4.876-4.876 14.629-9.752 24.381-9.752s19.505 4.876 24.381 9.752l209.676 209.676c0 0 0 0 0 0 19.505 19.505 19.505 43.886 4.876 58.514z" />
<glyph unicode="&#xe94a;" glyph-name="Table_Sort-Icon_OFF" d="M740.073 205.964c0 0 0 0 0 0-13.964 13.964-37.236 13.964-51.2 0l-139.636-139.636v772.655l139.636-139.636c0 0 0 0 0 0 13.964-13.964 37.236-13.964 51.2 0 0 0 0 0 0 0 13.964 13.964 13.964 37.236 0 51.2l-200.145 200.145c-9.309 4.655-18.618 9.309-27.927 9.309s-13.964-4.655-23.273-9.309l-200.145-200.145c0 0 0 0 0 0-13.964-13.964-13.964-37.236 0-51.2 0 0 0 0 0 0 13.964-13.964 37.236-13.964 51.2 0l139.636 139.636v-777.309l-139.636 139.636c0 0 0 0 0 0-13.964 13.964-37.236 13.964-51.2 0 0 0 0 0 0 0-13.964-13.964-13.964-37.236 0-51.2l200.145-200.145c4.655-4.655 13.964-9.309 23.273-9.309s18.618 4.655 23.273 9.309l200.145 200.145c0 0 0 0 0 0 18.618 18.618 18.618 41.891 4.655 55.855z" />
<glyph unicode="&#xe94b;" glyph-name="Table_Sort-Icon_Z-to-A" d="M740.073 750.545l-200.145 200.145c-9.309 4.655-18.618 9.309-27.927 9.309s-13.964-4.655-23.273-9.309l-200.145-200.145c0 0 0 0 0 0-13.964-13.964-13.964-37.236 0-51.2 0 0 0 0 0 0 13.964-13.964 37.236-13.964 51.2 0l139.636 139.636v-847.127c0-18.618 13.964-37.236 37.236-37.236 18.618 0 37.236 13.964 37.236 37.236v847.127l139.636-139.636c0 0 0 0 0 0 13.964-13.964 37.236-13.964 51.2 0 0 0 0 0 0 0 9.309 13.964 9.309 37.236-4.655 51.2z" />
<glyph unicode="&#xe94c;" glyph-name="Title-Bar-Icon-_-Cross" d="M982.486 814.703c-13.838 0-27.676-10.378-27.676-27.676v-723.027c0-41.514-34.595-79.568-79.568-79.568h-743.784c-41.514 0-79.568 34.595-79.568 79.568v750.703c0 41.514 34.595 76.108 79.568 76.108h723.027c13.838 0 27.676 10.378 27.676 27.676s-17.297 24.216-31.135 24.216h-719.568c-72.649 0-131.459-58.811-131.459-128v-747.243c0-72.649 58.811-131.459 131.459-131.459h747.243c72.649 0 131.459 58.811 131.459 131.459v719.568c-3.459 17.297-13.838 27.676-27.676 27.676zM761.081 693.622c-10.378 10.378-27.676 10.378-38.054 0l-217.946-217.946-221.405 217.946c-10.378 10.378-27.676 10.378-38.054 0s-10.378-27.676 0-38.054l217.946-217.946-217.946-217.946c-10.378-10.378-10.378-27.676 0-38.054 3.459-3.459 10.378-6.919 17.297-6.919s13.838 3.459 17.297 6.919l217.946 217.946 217.946-217.946c3.459-3.459 10.378-6.919 17.297-6.919s13.838 3.459 17.297 6.919c10.378 10.378 10.378 27.676 0 38.054l-217.946 217.946 228.324 221.405c10.378 10.378 10.378 24.216 0 34.595zM1027.459 918.486c0-24.838-20.135-44.973-44.973-44.973s-44.973 20.135-44.973 44.973c0 24.838 20.135 44.973 44.973 44.973s44.973-20.135 44.973-44.973z" />
<glyph unicode="&#xe94d;" glyph-name="Title-Bar-Icon-_-Log-Out" d="M380.541 669.405c13.838 6.919 17.297 24.216 10.378 34.595-6.919 13.838-24.216 17.297-34.595 10.378-159.135-86.486-217.946-283.676-131.459-442.811 58.811-110.703 172.973-172.973 290.595-172.973 51.892 0 107.243 13.838 155.676 38.054 159.135 86.486 217.946 287.135 131.459 446.27-31.135 55.351-76.108 103.784-131.459 131.459-13.838 6.919-27.676 3.459-34.595-10.378s-3.459-27.676 10.378-34.595c48.432-24.216 86.486-65.73 110.703-110.703 72.649-134.919 20.757-304.432-110.703-377.081-134.919-72.649-304.432-20.757-377.081 110.703-34.595 65.73-41.514 138.378-20.757 211.027s65.73 131.459 131.459 166.054zM539.676 409.946v318.27c0 13.838-10.378 27.676-27.676 27.676s-27.676-10.378-27.676-27.676v-318.27c0-13.838 10.378-27.676 27.676-27.676s27.676 10.378 27.676 27.676zM982.486 814.703c-13.838 0-27.676-10.378-27.676-27.676v-723.027c0-41.514-34.595-79.568-79.568-79.568h-743.784c-41.514 0-79.568 34.595-79.568 79.568v750.703c0 41.514 34.595 76.108 79.568 76.108h723.027c13.838 0 27.676 10.378 27.676 27.676s-17.297 24.216-31.135 24.216h-719.568c-72.649 0-131.459-58.811-131.459-128v-747.243c0-72.649 58.811-131.459 131.459-131.459h747.243c72.649 0 131.459 58.811 131.459 131.459v719.568c-3.459 17.297-13.838 27.676-27.676 27.676zM1027.459 918.486c0-24.838-20.135-44.973-44.973-44.973s-44.973 20.135-44.973 44.973c0 24.838 20.135 44.973 44.973 44.973s44.973-20.135 44.973-44.973z" />
<glyph unicode="&#xe94e;" glyph-name="Title-Bar-Icon-_-Profile" d="M982.486 814.703c-13.838 0-27.676-10.378-27.676-27.676v-723.027c0-41.514-34.595-79.568-79.568-79.568h-743.784c-41.514 0-79.568 34.595-79.568 79.568v750.703c0 41.514 34.595 76.108 79.568 76.108h723.027c13.838 0 27.676 10.378 27.676 27.676s-17.297 24.216-31.135 24.216h-719.568c-72.649 0-131.459-58.811-131.459-128v-747.243c0-72.649 58.811-131.459 131.459-131.459h747.243c72.649 0 131.459 58.811 131.459 131.459v719.568c-3.459 17.297-13.838 27.676-27.676 27.676zM1027.459 918.486c0-24.838-20.135-44.973-44.973-44.973s-44.973 20.135-44.973 44.973c0 24.838 20.135 44.973 44.973 44.973s44.973-20.135 44.973-44.973zM622.703 396.108c51.892 34.595 86.486 93.405 86.486 162.595 3.459 107.243-83.027 193.73-190.27 193.73s-193.73-86.486-193.73-193.73c0-69.189 34.595-128 86.486-162.595-107.243-41.514-183.351-148.757-183.351-269.838 0-13.838 10.378-27.676 27.676-27.676 13.838 0 27.676 10.378 27.676 27.676 0 131.459 103.784 235.243 235.243 238.703 0 0 3.459 0 3.459 0s3.459 0 3.459 0c128-3.459 235.243-107.243 235.243-238.703 0-13.838 10.378-27.676 27.676-27.676 13.838 0 27.676 10.378 27.676 27.676-10.378 121.081-86.486 228.324-193.73 269.838zM518.919 416.865v0c0 0 0 0 0 0s0 0 0 0h-6.919c-76.108 0-138.378 65.73-138.378 141.838 0 79.568 62.27 141.838 141.838 141.838s141.838-62.27 141.838-141.838c3.459-79.568-58.811-141.838-138.378-141.838z" />
<glyph unicode="&#xe94f;" glyph-name="Tree-View_Flesh-Icon-for-next-level" d="M1017.976 707.012c0 0 0 0 0 0-18.071 18.071-48.188 18.071-66.259 0l-439.718-439.718-433.694 439.718c0 0 0 0 0 0-18.071 18.071-48.188 18.071-66.259 0 0 0 0 0 0 0-18.071-18.071-18.071-48.188 0-66.259l469.835-469.835c6.024-6.024 18.071-12.047 30.118-12.047s24.094 6.024 30.118 12.047l469.835 469.835c0 0 0 0 0 0 24.094 18.071 24.094 48.188 6.024 66.259z" />
<glyph unicode="&#xe950;" glyph-name="Tree-View_Flesh-Icon-for-previous-level" d="M789.082 478.118l-469.835 469.835c0 0 0 0 0 0-18.071 18.071-48.188 18.071-66.259 0 0 0 0 0 0 0-18.071-18.071-18.071-48.188 0-66.259l439.718-439.718-439.718-439.718c0 0 0 0 0 0-18.071-18.071-18.071-48.188 0-66.259 0 0 0 0 0 0 18.071-18.071 48.188-18.071 66.259 0l469.835 469.835c6.024 6.024 12.047 18.071 12.047 30.118 0 24.094-6.024 30.118-12.047 42.165z" />
</font>
</defs>
</svg>
